# xmcd
#
# Track frame offsets: 
#        150
#        20216
#        43738
#        60843
#        81857
#        99395
#        114288
#        132350
#        149824
#        163798
#        186941
#        197956
#        217031
#
# Disc length: 3178 seconds
#
# Revision: 0
# Processed by: cddbd v1.5.2PL0 Copyright (c) Steve Scherf et al.
# Submitted via: ExactAudioCopy v0.99pb4
#
DISCID=c30c680d
DTITLE=Rochesters, The - We've Met to Worship
DYEAR=2010
DGENRE=Bluegrass
TTITLE0=Brethren, We've Met to Worship
TTITLE1=It Is Well
TTITLE2=All Hail The Power
TTITLE3=I Know Who Holds Tomorrow
TTITLE4=Thank You Lord
TTITLE5=The Lily of the Valley
TTITLE6=I'd Rather Have Jesus
TTITLE7=I Know Whom I Have Believed
TTITLE8=Nothing But the Blood
TTITLE9=Wayfaring Stranger
TTITLE10=I Love My Savior, Too
TTITLE11=I'm a Soldier
TTITLE12=Where The Roses Never Fade
EXTD=
EXTT0=
EXTT1=
EXTT2=
EXTT3=
EXTT4=
EXTT5=
EXTT6=
EXTT7=
EXTT8=
EXTT9=
EXTT10=
EXTT11=
EXTT12=
PLAYORDER=
